<!-- VideoSummarizer icon SVG -->
<svg width="96" height="96" viewBox="0 0 96 96" fill="none" xmlns="http://www.w3.org/2000/svg" role="img" aria-label="Video summarizer icon">
    <title>Video summarizer</title>
    <!-- video rectangle -->
    <rect x="6" y="8" width="56" height="50" rx="8" fill="#00ADB5"/>

    <!-- play triangle -->
    <path d="M30 25L44 33.5L30 42V25Z" fill="#393E46"/>

    <!-- small summary sheet (overlapping) -->
    <rect x="46" y="28" width="38" height="48" rx="4" fill="#EEEEEE" stroke="#CBD5E0"/>
    <!-- folded corner -->
    <path d="M78 28 L70 28 L78 36 Z" fill="#E2E8F0"/>

    <!-- lines on sheet -->
    <rect x="54" y="36" width="24" height="3" rx="1" fill="#393E46"/>
    <rect x="54" y="43" width="20" height="3" rx="1" fill="#393E46"/>
    <rect x="54" y="50" width="24" height="3" rx="1" fill="#393E46"/>
    <rect x="54" y="57" width="20" height="3" rx="1" fill="#393E46"/>
    <rect x="54" y="64" width="24" height="3" rx="1" fill="#393E46"/>

    <!-- small bullet dots -->
    <circle cx="50" cy="37.5" r="2" fill="#393E46"/>
    <circle cx="50" cy="44.5" r="2" fill="#393E46"/>
    <circle cx="50" cy="51.5" r="2" fill="#393E46"/>
    <circle cx="50" cy="58.5" r="2" fill="#393E46"/>
    <circle cx="50" cy="65.5" r="2" fill="#393E46"/>
</svg>
